#format: frame checksums
#version: 2
#hash: MD5
#software: Lavf62.3.100
#tb 0: 1/4
#media_type 0: video
#codec_id 0: rawvideo
#dimensions 0: 180x320
#sar 0: 1/1
#stream#, dts,        pts, duration,     size, hash
0,          0,          0,        1,    86400, c621f8505a0b0f2f0e44552ebc30744e
0,          1,          1,        1,    86400, 4d65602d7655d859b247d2f6cd3f61a3
0,          2,          2,        1,    86400, 25cbfcafaed11be1c437a5594abe4999
0,          3,          3,        1,    86400, 21a0295668c53a8d0e4d442e22c46ef9
0,          4,          4,        1,    86400, 15a0f6abbb3c615ad2bc4b95e7b62647
0,          5,          5,        1,    86400, 25da2a5a13d71101dbe24db13185a0b1
0,          6,          6,        1,    86400, 037cc350750e53a40dfeabe7659b442e
0,          7,          7,        1,    86400, 8bcb4dc4a823201c31ee749b96abad16
